<svg xmlns="http://www.w3.org/2000/svg" viewBox="0 0 52 52"><path d="m37.67 43.08-.34-.03c-1.92-.21-3.23-1.36-4.77-3.94 3.5-3.12 5.3-8.17 5.27-14.13-.08-5.09-1.48-9.71-4.03-13.04-2.55-3.32-6.23-5.46-10.82-5.84C12.5 5.22 7.91 12.84 8 23.06c.11 10.92 6.63 18.14 14.85 18.83 2.35.2 4.39-.07 6.42-.81 1.81 3.47 3.77 6.2 7.05 6.47 2.93.25 5.52-2.98 6.84-6.16-2.02 1.35-3.23 1.88-5.49 1.69m-14.71-4.1c-2.48-.21-4.41-1.13-5.91-2.57.02-3.02 1.89-5.01 4.46-4.79 3.2.27 4.66 3.32 6.22 6.45-1.45.79-2.9 1.11-4.77.91m7.38-3.48c-2.49-3.91-4.54-6.57-8.22-6.88-3.39-.28-5.65 1.6-6.7 5.8-1.76-3.52-2.23-7.3-2.27-11.13-.08-7.48 1.88-15.06 9.77-14.4 7.63.64 9.48 8.39 9.54 15.77.04 3.93-.4 7.74-2.12 10.84m11.81 10.14c1.39-1.61 2.37-3.57 2.82-4.71l1.42-.41c-.89 1.83-2.31 4.09-4.24 5.12m-7.72-6.51c1.41-1.33 5.8-6.32 4.93-16.25-.97-11.01-6.79-15.32-11.51-17-.72-.23-1.44-.43-2.16-.58 3.44.07 8.09 1.16 11.56 5.74 6.29 8.3 4.78 21.93-1.41 26.92.37.8 1.77 3.18 3.51 3.95-2.3.27-3.87-.89-4.92-2.78m-9.88-1.27c-2.49-.18-4.32-.64-5.87-2.04.11-1.89 1.1-2.98 2.48-3.44-.38.65-.8 2.06-.73 3.05.44.66 2.41 2.03 4.12 2.43m6.15-4.8c-1.82-2.76-3.81-4.51-5.92-5.21 3.75-.17 5.76 2.19 6.49 3.15-.15.73-.34 1.42-.57 2.06m-14.81-1.69c-.88-2.75-1.26-6.83-1.02-11.31.25-4.68 2.12-8.43 4.88-9.98-1.3 1.65-2.31 4.02-2.77 6.62-.7 4.01-.57 8.98.34 12.8-.55.51-1.03 1.13-1.43 1.87"></path></svg>